<svg width="512" height="512" viewBox="0 0 512 512" fill="none" xmlns="http://www.w3.org/2000/svg">
  <defs>
    <linearGradient id="bg" x1="96" y1="64" x2="416" y2="448" gradientUnits="userSpaceOnUse">
      <stop stop-color="#29114A"/>
      <stop offset="0.5" stop-color="#0F173C"/>
      <stop offset="1" stop-color="#050814"/>
    </linearGradient>
    <linearGradient id="sun" x1="256" y1="112" x2="256" y2="280" gradientUnits="userSpaceOnUse">
      <stop stop-color="#FFF07A"/>
      <stop offset="0.38" stop-color="#FF8A4C"/>
      <stop offset="0.72" stop-color="#FF4FA3"/>
      <stop offset="1" stop-color="#A54CFF"/>
    </linearGradient>
    <linearGradient id="grid" x1="122" y1="218" x2="390" y2="394" gradientUnits="userSpaceOnUse">
      <stop stop-color="#5AF3FF" stop-opacity="0.95"/>
      <stop offset="1" stop-color="#8A5CFF" stop-opacity="0.25"/>
    </linearGradient>
    <linearGradient id="nStroke" x1="172" y1="148" x2="338" y2="360" gradientUnits="userSpaceOnUse">
      <stop stop-color="#FDFEFF"/>
      <stop offset="0.45" stop-color="#7BE7FF"/>
      <stop offset="1" stop-color="#FF6BCB"/>
    </linearGradient>
    <filter id="glow" x="115" y="107" width="282" height="302" filterUnits="userSpaceOnUse" color-interpolation-filters="sRGB">
      <feFlood flood-opacity="0" result="BackgroundImageFix"/>
      <feBlend mode="normal" in="SourceGraphic" in2="BackgroundImageFix" result="shape"/>
      <feGaussianBlur stdDeviation="14" result="effect1_foregroundBlur"/>
    </filter>
    <clipPath id="sunClip">
      <circle cx="256" cy="202" r="82"/>
    </clipPath>
  </defs>

  <rect x="28" y="28" width="456" height="456" rx="108" fill="url(#bg)"/>
  <rect x="34" y="34" width="444" height="444" rx="102" stroke="rgba(255,255,255,0.10)" stroke-width="4"/>

  <circle cx="256" cy="202" r="82" fill="url(#sun)"/>
  <g clip-path="url(#sunClip)" opacity="0.55">
    <rect x="160" y="136" width="192" height="8" fill="#FFF6C5"/>
    <rect x="160" y="158" width="192" height="8" fill="#FFD0AF"/>
    <rect x="160" y="180" width="192" height="8" fill="#FFB28B"/>
    <rect x="160" y="202" width="192" height="8" fill="#FF8AC4"/>
    <rect x="160" y="224" width="192" height="8" fill="#D789FF"/>
    <rect x="160" y="246" width="192" height="8" fill="#9D7DFF"/>
  </g>

  <path d="M132 278H380" stroke="url(#grid)" stroke-width="3" stroke-linecap="round"/>
  <path d="M146 300H366" stroke="url(#grid)" stroke-width="2.5" stroke-linecap="round" opacity="0.9"/>
  <path d="M160 322H352" stroke="url(#grid)" stroke-width="2.5" stroke-linecap="round" opacity="0.75"/>
  <path d="M176 344H336" stroke="url(#grid)" stroke-width="2" stroke-linecap="round" opacity="0.6"/>
  <path d="M194 366H318" stroke="url(#grid)" stroke-width="2" stroke-linecap="round" opacity="0.45"/>

  <path d="M256 278V386" stroke="url(#grid)" stroke-width="2.5" stroke-linecap="round" opacity="0.8"/>
  <path d="M220 278L194 386" stroke="url(#grid)" stroke-width="2" stroke-linecap="round" opacity="0.55"/>
  <path d="M292 278L318 386" stroke="url(#grid)" stroke-width="2" stroke-linecap="round" opacity="0.55"/>
  <path d="M184 278L154 386" stroke="url(#grid)" stroke-width="1.5" stroke-linecap="round" opacity="0.35"/>
  <path d="M328 278L358 386" stroke="url(#grid)" stroke-width="1.5" stroke-linecap="round" opacity="0.35"/>

  <g filter="url(#glow)" opacity="0.45">
    <path d="M176 352V162H224L304 280V162H336V352H288L208 232V352H176Z" fill="url(#nStroke)"/>
  </g>
  <path d="M176 352V162H224L304 280V162H336V352H288L208 232V352H176Z" fill="url(#nStroke)"/>

  <rect x="28" y="28" width="456" height="456" rx="108" stroke="#6FF9FF" stroke-opacity="0.14" stroke-width="8"/>
</svg>
